<svg version="1.1" id="Layer_1" xmlns="http://www.w3.org/2000/svg" xmlns:xlink="http://www.w3.org/1999/xlink" x="0px" y="0px"
	 width="100%" viewBox="0 0 512 512" enable-background="new 0 0 512 512" xml:space="preserve">
<path fill="#EFF6F9" opacity="1.000000" stroke="none" 
	d="
M257.000000,513.000000 
	C246.645767,513.000000 236.291550,513.000000 225.778778,512.636841 
	C224.781097,511.850220 223.985474,511.224945 223.096359,511.033356 
	C209.254181,508.050354 195.251358,505.681641 181.585205,502.045258 
	C163.695435,497.284973 146.950195,489.546753 130.807175,480.430908 
	C114.964066,471.484436 99.862488,461.376099 86.743073,448.895325 
	C74.574371,437.319061 63.084206,424.854889 52.561226,411.764038 
	C36.552082,391.848267 24.568478,369.427124 16.030863,345.295807 
	C9.733210,327.495697 4.429382,309.419220 2.904331,290.449097 
	C2.861675,289.918457 1.660801,289.480927 1.000000,289.000000 
	C1.000000,267.645782 1.000000,246.291550 1.361251,224.774445 
	C2.147224,223.772964 2.770433,222.978241 2.966916,222.089203 
	C5.952828,208.578796 8.336987,194.908020 11.953734,181.570831 
	C17.397663,161.495667 26.204771,142.794876 36.959862,124.967049 
	C51.377228,101.068588 69.252274,80.210938 90.394875,62.013889 
	C109.498329,45.571896 130.461487,32.141376 153.550919,22.118309 
	C175.791122,12.463892 198.794464,5.399447 223.050537,2.921806 
	C223.758408,2.849502 224.352722,1.665604 225.000000,0.999999 
	C235.354233,1.000000 245.708450,1.000000 256.531342,1.468657 
	C256.995453,42.527596 256.990906,83.117874 256.645752,123.701508 
	C245.305573,118.163193 234.496231,112.207207 223.272934,107.174408 
	C178.213623,86.968727 130.907532,76.704132 81.529587,76.010704 
	C80.388573,75.994675 79.244751,76.178894 77.109657,76.348610 
	C125.271873,97.664085 167.975632,125.563148 208.534988,157.334442 
	C122.766045,230.937988 78.581345,323.375732 75.600571,434.990936 
	C88.490311,412.076447 100.608803,388.514465 114.572868,366.102417 
	C150.621429,308.245117 195.069244,257.214813 244.289658,210.242081 
	C248.349380,206.367783 252.748367,202.848984 256.992462,199.623322 
	C256.996826,304.387756 256.998413,408.693878 257.000000,513.000000 
z"/>
<path fill="#D1DEE4" opacity="1.000000" stroke="none" 
	d="
M256.986359,123.708153 
	C256.990906,83.117874 256.995453,42.527596 257.000000,1.468657 
	C267.354218,1.000000 277.708466,1.000000 288.223083,1.364896 
	C289.224884,2.151727 290.023163,2.773426 290.914154,2.965693 
	C304.761444,5.953836 318.768188,8.332043 332.440674,11.969142 
	C350.374664,16.739864 367.167145,24.453325 383.335846,33.643784 
	C399.038971,42.569622 414.038391,52.588421 427.082764,64.936401 
	C439.380890,76.578011 450.951111,89.168259 461.564117,102.368271 
	C477.530731,122.226883 489.379150,144.653976 497.952820,168.672897 
	C504.302002,186.459946 509.589630,204.557938 511.099365,223.541046 
	C511.141785,224.074371 512.340454,224.515747 513.000000,225.000000 
	C513.000000,246.020889 513.000000,267.041779 512.635132,288.222931 
	C511.854736,289.057770 511.185394,289.689331 511.062622,290.413574 
	C509.659821,298.687347 508.772095,307.073212 506.918213,315.241089 
	C501.185059,340.500458 491.842529,364.473602 478.628326,386.712372 
	C466.424316,407.251038 452.052368,426.294281 434.105774,442.280701 
	C424.510986,450.827515 414.751221,459.274384 404.420654,466.891205 
	C385.952393,480.507965 365.643372,490.923370 343.966095,498.463013 
	C326.748291,504.451599 309.263977,509.530029 290.956146,511.081604 
	C290.254944,511.141022 289.649872,512.334778 289.000000,513.000000 
	C278.645782,513.000000 268.291534,513.000000 257.468658,513.000000 
	C256.998413,408.693878 256.996826,304.387756 257.021973,199.483398 
	C257.048737,198.885178 257.043640,198.599243 257.335449,198.792419 
	C331.483765,267.426056 394.855743,343.840271 437.949005,435.765350 
	C435.463196,323.383667 391.157776,230.838531 305.538635,157.379578 
	C325.748779,141.277374 346.423340,126.146286 368.454193,113.081268 
	C390.450897,100.036514 413.043152,87.995956 436.762543,74.739281 
	C417.076782,76.750374 398.450989,77.908440 380.068390,80.679878 
	C336.327942,87.274376 295.415588,102.276482 257.030884,124.071213 
	C257.041473,123.948418 256.986359,123.708153 256.986359,123.708153 
z"/>
<path fill="#000000" opacity="1.000000" stroke="none" 
	d="
M1.000000,289.468658 
	C1.660801,289.480927 2.861675,289.918457 2.904331,290.449097 
	C4.429382,309.419220 9.733210,327.495697 16.030863,345.295807 
	C24.568478,369.427124 36.552082,391.848267 52.561226,411.764038 
	C63.084206,424.854889 74.574371,437.319061 86.743073,448.895325 
	C99.862488,461.376099 114.964066,471.484436 130.807175,480.430908 
	C146.950195,489.546753 163.695435,497.284973 181.585205,502.045258 
	C195.251358,505.681641 209.254181,508.050354 223.096359,511.033356 
	C223.985474,511.224945 224.781097,511.850220 225.310120,512.636841 
	C150.406296,513.000000 75.812599,513.000000 1.000000,513.000000 
	C1.000000,438.645905 1.000000,364.291626 1.000000,289.468658 
z"/>
<path fill="#000000" opacity="1.000000" stroke="none" 
	d="
M513.000000,224.531342 
	C512.340454,224.515747 511.141785,224.074371 511.099365,223.541046 
	C509.589630,204.557938 504.302002,186.459946 497.952820,168.672897 
	C489.379150,144.653976 477.530731,122.226883 461.564117,102.368271 
	C450.951111,89.168259 439.380890,76.578011 427.082764,64.936401 
	C414.038391,52.588421 399.038971,42.569622 383.335846,33.643784 
	C367.167145,24.453325 350.374664,16.739864 332.440674,11.969142 
	C318.768188,8.332043 304.761444,5.953836 290.914154,2.965693 
	C290.023163,2.773426 289.224884,2.151727 288.691711,1.364896 
	C363.593719,1.000000 438.187408,1.000000 513.000000,1.000000 
	C513.000000,75.354088 513.000000,149.708389 513.000000,224.531342 
z"/>
<path fill="#000000" opacity="1.000000" stroke="none" 
	d="
M289.468658,513.000000 
	C289.649872,512.334778 290.254944,511.141022 290.956146,511.081604 
	C309.263977,509.530029 326.748291,504.451599 343.966095,498.463013 
	C365.643372,490.923370 385.952393,480.507965 404.420654,466.891205 
	C414.751221,459.274384 424.510986,450.827515 434.105774,442.280701 
	C452.052368,426.294281 466.424316,407.251038 478.628326,386.712372 
	C491.842529,364.473602 501.185059,340.500458 506.918213,315.241089 
	C508.772095,307.073212 509.659821,298.687347 511.062622,290.413574 
	C511.185394,289.689331 511.854736,289.057770 512.635132,288.691589 
	C513.000000,363.593719 513.000000,438.187408 513.000000,513.000000 
	C438.645905,513.000000 364.291626,513.000000 289.468658,513.000000 
z"/>
<path fill="#000000" opacity="1.000000" stroke="none" 
	d="
M224.531342,0.999999 
	C224.352722,1.665604 223.758408,2.849502 223.050537,2.921806 
	C198.794464,5.399447 175.791122,12.463892 153.550919,22.118309 
	C130.461487,32.141376 109.498329,45.571896 90.394875,62.013889 
	C69.252274,80.210938 51.377228,101.068588 36.959862,124.967049 
	C26.204771,142.794876 17.397663,161.495667 11.953734,181.570831 
	C8.336987,194.908020 5.952828,208.578796 2.966916,222.089203 
	C2.770433,222.978241 2.147224,223.772964 1.361251,224.305786 
	C1.000000,149.739456 1.000000,75.478920 1.000000,1.000000 
	C75.354088,1.000000 149.708389,1.000000 224.531342,0.999999 
z"/>
<path fill="#A5ED74" opacity="1.000000" stroke="none" 
	d="
M257.019226,199.025085 
	C252.748367,202.848984 248.349380,206.367783 244.289658,210.242081 
	C195.069244,257.214813 150.621429,308.245117 114.572868,366.102417 
	C100.608803,388.514465 88.490311,412.076447 75.600571,434.990936 
	C78.581345,323.375732 122.766045,230.937988 208.534988,157.334442 
	C167.975632,125.563148 125.271873,97.664085 77.109657,76.348610 
	C79.244751,76.178894 80.388573,75.994675 81.529587,76.010704 
	C130.907532,76.704132 178.213623,86.968727 223.272934,107.174408 
	C234.496231,112.207207 245.305573,118.163193 256.645752,123.701508 
	C256.986359,123.708153 257.041473,123.948418 257.025391,124.526169 
	C257.020721,149.602356 257.032166,174.100800 257.043640,198.599243 
	C257.043640,198.599243 257.048737,198.885178 257.019226,199.025085 
z"/>
<path fill="#6CBF33" opacity="1.000000" stroke="none" 
	d="
M257.335449,198.792419 
	C257.032166,174.100800 257.020721,149.602356 257.014801,124.648956 
	C295.415588,102.276482 336.327942,87.274376 380.068390,80.679878 
	C398.450989,77.908440 417.076782,76.750374 436.762543,74.739281 
	C413.043152,87.995956 390.450897,100.036514 368.454193,113.081268 
	C346.423340,126.146286 325.748779,141.277374 305.538635,157.379578 
	C391.157776,230.838531 435.463196,323.383667 437.949005,435.765350 
	C394.855743,343.840271 331.483765,267.426056 257.335449,198.792419 
z"/>
</svg>